<svg width="30" height="20" viewBox="0 0 34 24" fill="none" xmlns="http://www.w3.org/2000/svg">
            <path d="M33.4 5.12C33.06 3.88 32.09 2.92 30.85 2.6C28.62 2 19.68 2 19.68 2C19.68 2 10.75 2 8.52 2.6C7.29 2.93 6.33 3.89 6 5.12C5.59 7.39 5.39 9.69 5.4 12C5.39 14.31 5.59 16.61 6 18.88C6.33 20.11 7.29 21.07 8.52 21.4C10.75 22 19.68 22 19.68 22C19.68 22 28.61 22 30.84 21.4C32.08 21.08 33.06 20.12 33.4 18.88C33.81 16.61 34.01 14.31 34 12C34.01 9.69 33.81 7.39 33.4 5.12Z" fill="#FF0000" />
            <path d="M16.83 16.29L24.25 12L16.83 7.71002V16.29Z" fill="white" />
</svg>